<?xml version="1.0" encoding="UTF-8" standalone="no"?>
<!DOCTYPE svg PUBLIC "-//W3C//DTD SVG 1.1//EN"
 "http://www.w3.org/Graphics/SVG/1.1/DTD/svg11.dtd">
<!-- Generated by graphviz version 14.0.5 (0)
 -->
<!-- Title: model Pages: 1 -->
<svg width="162pt" height="1231pt"
 viewBox="0.00 0.00 162.00 1231.00" xmlns="http://www.w3.org/2000/svg" xmlns:xlink="http://www.w3.org/1999/xlink">
<g id="graph0" class="graph" transform="scale(0.642904 0.642904) rotate(0) translate(4 1910.75)">
<title>model</title>
<polygon fill="white" stroke="none" points="-4,4 -4,-1910.75 248,-1910.75 248,4 -4,4"/>
<g id="clust1" class="cluster">
<title>cluster_2</title>
<polygon fill="none" stroke="black" stroke-dasharray="5,2" points="8,-1372 8,-1618.75 236,-1618.75 236,-1372 8,-1372"/>
<text xml:space="preserve" text-anchor="middle" x="40.75" y="-1603.35" font-family="Times,serif" font-size="12.00">Sequential</text>
</g>
<g id="clust2" class="cluster">
<title>cluster_3</title>
<polygon fill="none" stroke="black" stroke-dasharray="5,2" points="22,-880.75 22,-1127.5 194,-1127.5 194,-880.75 22,-880.75"/>
<text xml:space="preserve" text-anchor="middle" x="54.75" y="-1112.1" font-family="Times,serif" font-size="12.00">Sequential</text>
</g>
<g id="clust3" class="cluster">
<title>cluster_4</title>
<polygon fill="none" stroke="black" stroke-dasharray="5,2" points="49,-145 49,-473.25 203,-473.25 203,-145 49,-145"/>
<text xml:space="preserve" text-anchor="middle" x="81.75" y="-457.85" font-family="Times,serif" font-size="12.00">Sequential</text>
</g>
<!-- 0 -->
<g id="node1" class="node">
<title>0</title>
<polygon fill="lightyellow" stroke="none" points="183.75,-1906.75 60.25,-1906.75 60.25,-1871.25 183.75,-1871.25 183.75,-1906.75"/>
<polygon fill="none" stroke="black" points="60.25,-1871.25 60.25,-1906.75 126.5,-1906.75 126.5,-1871.25 60.25,-1871.25"/>
<text xml:space="preserve" text-anchor="start" x="65.25" y="-1892.25" font-family="Linux libertine" font-size="10.00">input&#45;tensor</text>
<text xml:space="preserve" text-anchor="start" x="75.75" y="-1879.5" font-family="Linux libertine" font-size="10.00">depth:0</text>
<polygon fill="none" stroke="black" points="126.5,-1871.25 126.5,-1906.75 183.75,-1906.75 183.75,-1871.25 126.5,-1871.25"/>
<text xml:space="preserve" text-anchor="start" x="131.5" y="-1885.88" font-family="Linux libertine" font-size="10.00">(1, 330750)</text>
</g>
<!-- 1 -->
<g id="node2" class="node">
<title>1</title>
<polygon fill="aliceblue" stroke="none" points="204.88,-1835.25 39.12,-1835.25 39.12,-1789.75 204.88,-1789.75 204.88,-1835.25"/>
<polygon fill="none" stroke="black" points="39.12,-1789.75 39.12,-1835.25 98.62,-1835.25 98.62,-1789.75 39.12,-1789.75"/>
<text xml:space="preserve" text-anchor="start" x="44.12" y="-1815.75" font-family="Linux libertine" font-size="10.00">__getitem__</text>
<text xml:space="preserve" text-anchor="start" x="51.25" y="-1803" font-family="Linux libertine" font-size="10.00">depth:1</text>
<polygon fill="none" stroke="black" points="98.62,-1812.5 98.62,-1835.25 145.38,-1835.25 145.38,-1812.5 98.62,-1812.5"/>
<text xml:space="preserve" text-anchor="start" x="108.5" y="-1820.75" font-family="Linux libertine" font-size="10.00">input:</text>
<polygon fill="none" stroke="black" points="145.38,-1812.5 145.38,-1835.25 204.88,-1835.25 204.88,-1812.5 145.38,-1812.5"/>
<text xml:space="preserve" text-anchor="start" x="150.38" y="-1820.75" font-family="Linux libertine" font-size="10.00">(1, 330750) </text>
<polygon fill="none" stroke="black" points="98.62,-1789.75 98.62,-1812.5 145.38,-1812.5 145.38,-1789.75 98.62,-1789.75"/>
<text xml:space="preserve" text-anchor="start" x="103.62" y="-1798" font-family="Linux libertine" font-size="10.00">output: </text>
<polygon fill="none" stroke="black" points="145.38,-1789.75 145.38,-1812.5 204.88,-1812.5 204.88,-1789.75 145.38,-1789.75"/>
<text xml:space="preserve" text-anchor="start" x="150.38" y="-1798" font-family="Linux libertine" font-size="10.00">(1, 329728) </text>
</g>
<!-- 0&#45;&gt;1 -->
<g id="edge1" class="edge">
<title>0&#45;&gt;1</title>
<path fill="none" stroke="black" d="M122,-1871.47C122,-1864.1 122,-1855.14 122,-1846.5"/>
<polygon fill="black" stroke="black" points="125.5,-1846.6 122,-1836.6 118.5,-1846.6 125.5,-1846.6"/>
</g>
<!-- 2 -->
<g id="node3" class="node">
<title>2</title>
<polygon fill="aliceblue" stroke="none" points="202.62,-1753.75 41.38,-1753.75 41.38,-1708.25 202.62,-1708.25 202.62,-1753.75"/>
<polygon fill="none" stroke="black" points="41.38,-1708.25 41.38,-1753.75 86.62,-1753.75 86.62,-1708.25 41.38,-1708.25"/>
<text xml:space="preserve" text-anchor="start" x="54.25" y="-1734.25" font-family="Linux libertine" font-size="10.00">view</text>
<text xml:space="preserve" text-anchor="start" x="46.38" y="-1721.5" font-family="Linux libertine" font-size="10.00">depth:1</text>
<polygon fill="none" stroke="black" points="86.62,-1731 86.62,-1753.75 133.38,-1753.75 133.38,-1731 86.62,-1731"/>
<text xml:space="preserve" text-anchor="start" x="96.5" y="-1739.25" font-family="Linux libertine" font-size="10.00">input:</text>
<polygon fill="none" stroke="black" points="133.38,-1731 133.38,-1753.75 202.62,-1753.75 202.62,-1731 133.38,-1731"/>
<text xml:space="preserve" text-anchor="start" x="143.25" y="-1739.25" font-family="Linux libertine" font-size="10.00">(1, 329728) </text>
<polygon fill="none" stroke="black" points="86.62,-1708.25 86.62,-1731 133.38,-1731 133.38,-1708.25 86.62,-1708.25"/>
<text xml:space="preserve" text-anchor="start" x="91.62" y="-1716.5" font-family="Linux libertine" font-size="10.00">output: </text>
<polygon fill="none" stroke="black" points="133.38,-1708.25 133.38,-1731 202.62,-1731 202.62,-1708.25 133.38,-1708.25"/>
<text xml:space="preserve" text-anchor="start" x="138.38" y="-1716.5" font-family="Linux libertine" font-size="10.00">(1, 161, 2048) </text>
</g>
<!-- 1&#45;&gt;2 -->
<g id="edge2" class="edge">
<title>1&#45;&gt;2</title>
<path fill="none" stroke="black" d="M122,-1789.78C122,-1782.15 122,-1773.4 122,-1765.06"/>
<polygon fill="black" stroke="black" points="125.5,-1765.21 122,-1755.21 118.5,-1765.21 125.5,-1765.21"/>
</g>
<!-- 3 -->
<g id="node4" class="node">
<title>3</title>
<polygon fill="aliceblue" stroke="none" points="203,-1672.25 41,-1672.25 41,-1626.75 203,-1626.75 203,-1672.25"/>
<polygon fill="none" stroke="black" points="41,-1626.75 41,-1672.25 87,-1672.25 87,-1626.75 41,-1626.75"/>
<text xml:space="preserve" text-anchor="start" x="46" y="-1652.75" font-family="Linux libertine" font-size="10.00">reshape</text>
<text xml:space="preserve" text-anchor="start" x="46.38" y="-1640" font-family="Linux libertine" font-size="10.00">depth:1</text>
<polygon fill="none" stroke="black" points="87,-1649.5 87,-1672.25 133.75,-1672.25 133.75,-1649.5 87,-1649.5"/>
<text xml:space="preserve" text-anchor="start" x="96.88" y="-1657.75" font-family="Linux libertine" font-size="10.00">input:</text>
<polygon fill="none" stroke="black" points="133.75,-1649.5 133.75,-1672.25 203,-1672.25 203,-1649.5 133.75,-1649.5"/>
<text xml:space="preserve" text-anchor="start" x="138.75" y="-1657.75" font-family="Linux libertine" font-size="10.00">(1, 161, 2048) </text>
<polygon fill="none" stroke="black" points="87,-1626.75 87,-1649.5 133.75,-1649.5 133.75,-1626.75 87,-1626.75"/>
<text xml:space="preserve" text-anchor="start" x="92" y="-1635" font-family="Linux libertine" font-size="10.00">output: </text>
<polygon fill="none" stroke="black" points="133.75,-1626.75 133.75,-1649.5 203,-1649.5 203,-1626.75 133.75,-1626.75"/>
<text xml:space="preserve" text-anchor="start" x="138.75" y="-1635" font-family="Linux libertine" font-size="10.00">(161, 1, 2048) </text>
</g>
<!-- 2&#45;&gt;3 -->
<g id="edge3" class="edge">
<title>2&#45;&gt;3</title>
<path fill="none" stroke="black" d="M122,-1708.28C122,-1700.65 122,-1691.9 122,-1683.56"/>
<polygon fill="black" stroke="black" points="125.5,-1683.71 122,-1673.71 118.5,-1683.71 125.5,-1683.71"/>
</g>
<!-- 4 -->
<g id="node5" class="node">
<title>4</title>
<polygon fill="#c1ffc1" stroke="none" points="223.25,-1588.5 20.75,-1588.5 20.75,-1543 223.25,-1543 223.25,-1588.5"/>
<polygon fill="none" stroke="black" points="20.75,-1543 20.75,-1588.5 102,-1588.5 102,-1543 20.75,-1543"/>
<text xml:space="preserve" text-anchor="start" x="25.75" y="-1569" font-family="Linux libertine" font-size="10.00">DepthwiseBlock</text>
<text xml:space="preserve" text-anchor="start" x="43.75" y="-1556.25" font-family="Linux libertine" font-size="10.00">depth:2</text>
<polygon fill="none" stroke="black" points="102,-1565.75 102,-1588.5 148.75,-1588.5 148.75,-1565.75 102,-1565.75"/>
<text xml:space="preserve" text-anchor="start" x="111.88" y="-1574" font-family="Linux libertine" font-size="10.00">input:</text>
<polygon fill="none" stroke="black" points="148.75,-1565.75 148.75,-1588.5 223.25,-1588.5 223.25,-1565.75 148.75,-1565.75"/>
<text xml:space="preserve" text-anchor="start" x="156.38" y="-1574" font-family="Linux libertine" font-size="10.00">(161, 1, 2048) </text>
<polygon fill="none" stroke="black" points="102,-1543 102,-1565.75 148.75,-1565.75 148.75,-1543 102,-1543"/>
<text xml:space="preserve" text-anchor="start" x="107" y="-1551.25" font-family="Linux libertine" font-size="10.00">output: </text>
<polygon fill="none" stroke="black" points="148.75,-1543 148.75,-1565.75 223.25,-1565.75 223.25,-1543 148.75,-1543"/>
<text xml:space="preserve" text-anchor="start" x="153.75" y="-1551.25" font-family="Linux libertine" font-size="10.00">(161, 32, 1024) </text>
</g>
<!-- 3&#45;&gt;4 -->
<g id="edge4" class="edge">
<title>3&#45;&gt;4</title>
<path fill="none" stroke="black" d="M122,-1627.02C122,-1618.64 122,-1608.84 122,-1599.61"/>
<polygon fill="black" stroke="black" points="125.5,-1599.88 122,-1589.88 118.5,-1599.88 125.5,-1599.88"/>
</g>
<!-- 5 -->
<g id="node6" class="node">
<title>5</title>
<polygon fill="#c1ffc1" stroke="none" points="223.25,-1507 20.75,-1507 20.75,-1461.5 223.25,-1461.5 223.25,-1507"/>
<polygon fill="none" stroke="black" points="20.75,-1461.5 20.75,-1507 102,-1507 102,-1461.5 20.75,-1461.5"/>
<text xml:space="preserve" text-anchor="start" x="25.75" y="-1487.5" font-family="Linux libertine" font-size="10.00">DepthwiseBlock</text>
<text xml:space="preserve" text-anchor="start" x="43.75" y="-1474.75" font-family="Linux libertine" font-size="10.00">depth:2</text>
<polygon fill="none" stroke="black" points="102,-1484.25 102,-1507 148.75,-1507 148.75,-1484.25 102,-1484.25"/>
<text xml:space="preserve" text-anchor="start" x="111.88" y="-1492.5" font-family="Linux libertine" font-size="10.00">input:</text>
<polygon fill="none" stroke="black" points="148.75,-1484.25 148.75,-1507 223.25,-1507 223.25,-1484.25 148.75,-1484.25"/>
<text xml:space="preserve" text-anchor="start" x="153.75" y="-1492.5" font-family="Linux libertine" font-size="10.00">(161, 32, 1024) </text>
<polygon fill="none" stroke="black" points="102,-1461.5 102,-1484.25 148.75,-1484.25 148.75,-1461.5 102,-1461.5"/>
<text xml:space="preserve" text-anchor="start" x="107" y="-1469.75" font-family="Linux libertine" font-size="10.00">output: </text>
<polygon fill="none" stroke="black" points="148.75,-1461.5 148.75,-1484.25 223.25,-1484.25 223.25,-1461.5 148.75,-1461.5"/>
<text xml:space="preserve" text-anchor="start" x="156.38" y="-1469.75" font-family="Linux libertine" font-size="10.00">(161, 64, 512) </text>
</g>
<!-- 4&#45;&gt;5 -->
<g id="edge5" class="edge">
<title>4&#45;&gt;5</title>
<path fill="none" stroke="black" d="M122,-1543.03C122,-1535.4 122,-1526.65 122,-1518.31"/>
<polygon fill="black" stroke="black" points="125.5,-1518.46 122,-1508.46 118.5,-1518.46 125.5,-1518.46"/>
</g>
<!-- 6 -->
<g id="node7" class="node">
<title>6</title>
<polygon fill="#c1ffc1" stroke="none" points="228.12,-1425.5 15.88,-1425.5 15.88,-1380 228.12,-1380 228.12,-1425.5"/>
<polygon fill="none" stroke="black" points="15.88,-1380 15.88,-1425.5 112.12,-1425.5 112.12,-1380 15.88,-1380"/>
<text xml:space="preserve" text-anchor="start" x="20.88" y="-1406" font-family="Linux libertine" font-size="10.00">AdaptiveAvgPool1d</text>
<text xml:space="preserve" text-anchor="start" x="46.38" y="-1393.25" font-family="Linux libertine" font-size="10.00">depth:2</text>
<polygon fill="none" stroke="black" points="112.12,-1402.75 112.12,-1425.5 158.88,-1425.5 158.88,-1402.75 112.12,-1402.75"/>
<text xml:space="preserve" text-anchor="start" x="122" y="-1411" font-family="Linux libertine" font-size="10.00">input:</text>
<polygon fill="none" stroke="black" points="158.88,-1402.75 158.88,-1425.5 228.12,-1425.5 228.12,-1402.75 158.88,-1402.75"/>
<text xml:space="preserve" text-anchor="start" x="163.88" y="-1411" font-family="Linux libertine" font-size="10.00">(161, 64, 512) </text>
<polygon fill="none" stroke="black" points="112.12,-1380 112.12,-1402.75 158.88,-1402.75 158.88,-1380 112.12,-1380"/>
<text xml:space="preserve" text-anchor="start" x="117.12" y="-1388.25" font-family="Linux libertine" font-size="10.00">output: </text>
<polygon fill="none" stroke="black" points="158.88,-1380 158.88,-1402.75 228.12,-1402.75 228.12,-1380 158.88,-1380"/>
<text xml:space="preserve" text-anchor="start" x="169.12" y="-1388.25" font-family="Linux libertine" font-size="10.00">(161, 64, 1) </text>
</g>
<!-- 5&#45;&gt;6 -->
<g id="edge6" class="edge">
<title>5&#45;&gt;6</title>
<path fill="none" stroke="black" d="M122,-1461.53C122,-1453.9 122,-1445.15 122,-1436.81"/>
<polygon fill="black" stroke="black" points="125.5,-1436.96 122,-1426.96 118.5,-1436.96 125.5,-1436.96"/>
</g>
<!-- 7 -->
<g id="node8" class="node">
<title>7</title>
<polygon fill="aliceblue" stroke="none" points="198.12,-1344 45.88,-1344 45.88,-1298.5 198.12,-1298.5 198.12,-1344"/>
<polygon fill="none" stroke="black" points="45.88,-1298.5 45.88,-1344 92.62,-1344 92.62,-1298.5 45.88,-1298.5"/>
<text xml:space="preserve" text-anchor="start" x="50.88" y="-1324.5" font-family="Linux libertine" font-size="10.00">squeeze</text>
<text xml:space="preserve" text-anchor="start" x="51.62" y="-1311.75" font-family="Linux libertine" font-size="10.00">depth:1</text>
<polygon fill="none" stroke="black" points="92.62,-1321.25 92.62,-1344 139.38,-1344 139.38,-1321.25 92.62,-1321.25"/>
<text xml:space="preserve" text-anchor="start" x="102.5" y="-1329.5" font-family="Linux libertine" font-size="10.00">input:</text>
<polygon fill="none" stroke="black" points="139.38,-1321.25 139.38,-1344 198.12,-1344 198.12,-1321.25 139.38,-1321.25"/>
<text xml:space="preserve" text-anchor="start" x="144.38" y="-1329.5" font-family="Linux libertine" font-size="10.00">(161, 64, 1) </text>
<polygon fill="none" stroke="black" points="92.62,-1298.5 92.62,-1321.25 139.38,-1321.25 139.38,-1298.5 92.62,-1298.5"/>
<text xml:space="preserve" text-anchor="start" x="97.62" y="-1306.75" font-family="Linux libertine" font-size="10.00">output: </text>
<polygon fill="none" stroke="black" points="139.38,-1298.5 139.38,-1321.25 198.12,-1321.25 198.12,-1298.5 139.38,-1298.5"/>
<text xml:space="preserve" text-anchor="start" x="149.25" y="-1306.75" font-family="Linux libertine" font-size="10.00">(161, 64) </text>
</g>
<!-- 6&#45;&gt;7 -->
<g id="edge7" class="edge">
<title>6&#45;&gt;7</title>
<path fill="none" stroke="black" d="M122,-1380.03C122,-1372.4 122,-1363.65 122,-1355.31"/>
<polygon fill="black" stroke="black" points="125.5,-1355.46 122,-1345.46 118.5,-1355.46 125.5,-1355.46"/>
</g>
<!-- 8 -->
<g id="node9" class="node">
<title>8</title>
<polygon fill="aliceblue" stroke="none" points="197.38,-1262.5 46.62,-1262.5 46.62,-1217 197.38,-1217 197.38,-1262.5"/>
<polygon fill="none" stroke="black" points="46.62,-1217 46.62,-1262.5 91.88,-1262.5 91.88,-1217 46.62,-1217"/>
<text xml:space="preserve" text-anchor="start" x="59.5" y="-1243" font-family="Linux libertine" font-size="10.00">view</text>
<text xml:space="preserve" text-anchor="start" x="51.62" y="-1230.25" font-family="Linux libertine" font-size="10.00">depth:1</text>
<polygon fill="none" stroke="black" points="91.88,-1239.75 91.88,-1262.5 138.62,-1262.5 138.62,-1239.75 91.88,-1239.75"/>
<text xml:space="preserve" text-anchor="start" x="101.75" y="-1248" font-family="Linux libertine" font-size="10.00">input:</text>
<polygon fill="none" stroke="black" points="138.62,-1239.75 138.62,-1262.5 197.38,-1262.5 197.38,-1239.75 138.62,-1239.75"/>
<text xml:space="preserve" text-anchor="start" x="148.5" y="-1248" font-family="Linux libertine" font-size="10.00">(161, 64) </text>
<polygon fill="none" stroke="black" points="91.88,-1217 91.88,-1239.75 138.62,-1239.75 138.62,-1217 91.88,-1217"/>
<text xml:space="preserve" text-anchor="start" x="96.88" y="-1225.25" font-family="Linux libertine" font-size="10.00">output: </text>
<polygon fill="none" stroke="black" points="138.62,-1217 138.62,-1239.75 197.38,-1239.75 197.38,-1217 138.62,-1217"/>
<text xml:space="preserve" text-anchor="start" x="143.62" y="-1225.25" font-family="Linux libertine" font-size="10.00">(1, 161, 64) </text>
</g>
<!-- 7&#45;&gt;8 -->
<g id="edge8" class="edge">
<title>7&#45;&gt;8</title>
<path fill="none" stroke="black" d="M122,-1298.53C122,-1290.9 122,-1282.15 122,-1273.81"/>
<polygon fill="black" stroke="black" points="125.5,-1273.96 122,-1263.96 118.5,-1273.96 125.5,-1273.96"/>
</g>
<!-- 9 -->
<g id="node10" class="node">
<title>9</title>
<polygon fill="#c1ffc1" stroke="none" points="222.88,-1181 21.12,-1181 21.12,-1135.5 222.88,-1135.5 222.88,-1181"/>
<polygon fill="none" stroke="black" points="21.12,-1135.5 21.12,-1181 66.38,-1181 66.38,-1135.5 21.12,-1135.5"/>
<text xml:space="preserve" text-anchor="start" x="34" y="-1161.5" font-family="Linux libertine" font-size="10.00">GRU</text>
<text xml:space="preserve" text-anchor="start" x="26.12" y="-1148.75" font-family="Linux libertine" font-size="10.00">depth:1</text>
<polygon fill="none" stroke="black" points="66.38,-1158.25 66.38,-1181 113.12,-1181 113.12,-1158.25 66.38,-1158.25"/>
<text xml:space="preserve" text-anchor="start" x="76.25" y="-1166.5" font-family="Linux libertine" font-size="10.00">input:</text>
<polygon fill="none" stroke="black" points="113.12,-1158.25 113.12,-1181 222.88,-1181 222.88,-1158.25 113.12,-1158.25"/>
<text xml:space="preserve" text-anchor="start" x="143.62" y="-1166.5" font-family="Linux libertine" font-size="10.00">(1, 161, 64) </text>
<polygon fill="none" stroke="black" points="66.38,-1135.5 66.38,-1158.25 113.12,-1158.25 113.12,-1135.5 66.38,-1135.5"/>
<text xml:space="preserve" text-anchor="start" x="71.38" y="-1143.75" font-family="Linux libertine" font-size="10.00">output: </text>
<polygon fill="none" stroke="black" points="113.12,-1135.5 113.12,-1158.25 222.88,-1158.25 222.88,-1135.5 113.12,-1135.5"/>
<text xml:space="preserve" text-anchor="start" x="118.12" y="-1143.75" font-family="Linux libertine" font-size="10.00">(1, 161, 128), (2, 1, 128) </text>
</g>
<!-- 8&#45;&gt;9 -->
<g id="edge9" class="edge">
<title>8&#45;&gt;9</title>
<path fill="none" stroke="black" d="M122,-1217.03C122,-1209.4 122,-1200.65 122,-1192.31"/>
<polygon fill="black" stroke="black" points="125.5,-1192.46 122,-1182.46 118.5,-1192.46 125.5,-1192.46"/>
</g>
<!-- 10 -->
<g id="node11" class="node">
<title>10</title>
<polygon fill="#c1ffc1" stroke="none" points="186,-1097.25 30,-1097.25 30,-1051.75 186,-1051.75 186,-1097.25"/>
<polygon fill="none" stroke="black" points="30,-1051.75 30,-1097.25 75.25,-1097.25 75.25,-1051.75 30,-1051.75"/>
<text xml:space="preserve" text-anchor="start" x="38.75" y="-1077.75" font-family="Linux libertine" font-size="10.00">Linear</text>
<text xml:space="preserve" text-anchor="start" x="35" y="-1065" font-family="Linux libertine" font-size="10.00">depth:2</text>
<polygon fill="none" stroke="black" points="75.25,-1074.5 75.25,-1097.25 122,-1097.25 122,-1074.5 75.25,-1074.5"/>
<text xml:space="preserve" text-anchor="start" x="85.12" y="-1082.75" font-family="Linux libertine" font-size="10.00">input:</text>
<polygon fill="none" stroke="black" points="122,-1074.5 122,-1097.25 186,-1097.25 186,-1074.5 122,-1074.5"/>
<text xml:space="preserve" text-anchor="start" x="127" y="-1082.75" font-family="Linux libertine" font-size="10.00">(1, 161, 128) </text>
<polygon fill="none" stroke="black" points="75.25,-1051.75 75.25,-1074.5 122,-1074.5 122,-1051.75 75.25,-1051.75"/>
<text xml:space="preserve" text-anchor="start" x="80.25" y="-1060" font-family="Linux libertine" font-size="10.00">output: </text>
<polygon fill="none" stroke="black" points="122,-1051.75 122,-1074.5 186,-1074.5 186,-1051.75 122,-1051.75"/>
<text xml:space="preserve" text-anchor="start" x="127" y="-1060" font-family="Linux libertine" font-size="10.00">(1, 161, 128) </text>
</g>
<!-- 9&#45;&gt;10 -->
<g id="edge11" class="edge">
<title>9&#45;&gt;10</title>
<path fill="none" stroke="black" d="M118.32,-1135.77C116.89,-1127.39 115.21,-1117.59 113.63,-1108.36"/>
<polygon fill="black" stroke="black" points="117.1,-1107.88 111.96,-1098.61 110.2,-1109.06 117.1,-1107.88"/>
</g>
<!-- 16 -->
<g id="node17" class="node">
<title>16</title>
<polygon fill="aliceblue" stroke="none" points="226.88,-608.25 25.12,-608.25 25.12,-562.75 226.88,-562.75 226.88,-608.25"/>
<polygon fill="none" stroke="black" points="25.12,-562.75 25.12,-608.25 70.38,-608.25 70.38,-562.75 25.12,-562.75"/>
<text xml:space="preserve" text-anchor="start" x="39.12" y="-588.75" font-family="Linux libertine" font-size="10.00">mul</text>
<text xml:space="preserve" text-anchor="start" x="30.12" y="-576" font-family="Linux libertine" font-size="10.00">depth:1</text>
<polygon fill="none" stroke="black" points="70.38,-585.5 70.38,-608.25 117.12,-608.25 117.12,-585.5 70.38,-585.5"/>
<text xml:space="preserve" text-anchor="start" x="80.25" y="-593.75" font-family="Linux libertine" font-size="10.00">input:</text>
<polygon fill="none" stroke="black" points="117.12,-585.5 117.12,-608.25 226.88,-608.25 226.88,-585.5 117.12,-585.5"/>
<text xml:space="preserve" text-anchor="start" x="122.12" y="-593.75" font-family="Linux libertine" font-size="10.00">(1, 161, 128), (1, 161, 1) </text>
<polygon fill="none" stroke="black" points="70.38,-562.75 70.38,-585.5 117.12,-585.5 117.12,-562.75 70.38,-562.75"/>
<text xml:space="preserve" text-anchor="start" x="75.38" y="-571" font-family="Linux libertine" font-size="10.00">output: </text>
<polygon fill="none" stroke="black" points="117.12,-562.75 117.12,-585.5 226.88,-585.5 226.88,-562.75 117.12,-562.75"/>
<text xml:space="preserve" text-anchor="start" x="145" y="-571" font-family="Linux libertine" font-size="10.00">(1, 161, 128) </text>
</g>
<!-- 9&#45;&gt;16 -->
<g id="edge10" class="edge">
<title>9&#45;&gt;16</title>
<path fill="none" stroke="black" d="M190,-1135.67C192.95,-1133.23 195.65,-1130.52 198,-1127.5 234.77,-1080.33 215,-1053.81 215,-994 215,-994 215,-994 215,-747.5 215,-700.84 219.65,-684.47 196,-644.25 189.58,-633.33 180.29,-623.58 170.57,-615.33"/>
<polygon fill="black" stroke="black" points="172.77,-612.61 162.77,-609.13 168.42,-618.09 172.77,-612.61"/>
</g>
<!-- 11 -->
<g id="node12" class="node">
<title>11</title>
<polygon fill="#c1ffc1" stroke="none" points="186,-1015.75 30,-1015.75 30,-970.25 186,-970.25 186,-1015.75"/>
<polygon fill="none" stroke="black" points="30,-970.25 30,-1015.75 75.25,-1015.75 75.25,-970.25 30,-970.25"/>
<text xml:space="preserve" text-anchor="start" x="41.75" y="-996.25" font-family="Linux libertine" font-size="10.00">Tanh</text>
<text xml:space="preserve" text-anchor="start" x="35" y="-983.5" font-family="Linux libertine" font-size="10.00">depth:2</text>
<polygon fill="none" stroke="black" points="75.25,-993 75.25,-1015.75 122,-1015.75 122,-993 75.25,-993"/>
<text xml:space="preserve" text-anchor="start" x="85.12" y="-1001.25" font-family="Linux libertine" font-size="10.00">input:</text>
<polygon fill="none" stroke="black" points="122,-993 122,-1015.75 186,-1015.75 186,-993 122,-993"/>
<text xml:space="preserve" text-anchor="start" x="127" y="-1001.25" font-family="Linux libertine" font-size="10.00">(1, 161, 128) </text>
<polygon fill="none" stroke="black" points="75.25,-970.25 75.25,-993 122,-993 122,-970.25 75.25,-970.25"/>
<text xml:space="preserve" text-anchor="start" x="80.25" y="-978.5" font-family="Linux libertine" font-size="10.00">output: </text>
<polygon fill="none" stroke="black" points="122,-970.25 122,-993 186,-993 186,-970.25 122,-970.25"/>
<text xml:space="preserve" text-anchor="start" x="127" y="-978.5" font-family="Linux libertine" font-size="10.00">(1, 161, 128) </text>
</g>
<!-- 10&#45;&gt;11 -->
<g id="edge12" class="edge">
<title>10&#45;&gt;11</title>
<path fill="none" stroke="black" d="M108,-1051.78C108,-1044.15 108,-1035.4 108,-1027.06"/>
<polygon fill="black" stroke="black" points="111.5,-1027.21 108,-1017.21 104.5,-1027.21 111.5,-1027.21"/>
</g>
<!-- 12 -->
<g id="node13" class="node">
<title>12</title>
<polygon fill="#c1ffc1" stroke="none" points="186,-934.25 30,-934.25 30,-888.75 186,-888.75 186,-934.25"/>
<polygon fill="none" stroke="black" points="30,-888.75 30,-934.25 75.25,-934.25 75.25,-888.75 30,-888.75"/>
<text xml:space="preserve" text-anchor="start" x="38.75" y="-914.75" font-family="Linux libertine" font-size="10.00">Linear</text>
<text xml:space="preserve" text-anchor="start" x="35" y="-902" font-family="Linux libertine" font-size="10.00">depth:2</text>
<polygon fill="none" stroke="black" points="75.25,-911.5 75.25,-934.25 122,-934.25 122,-911.5 75.25,-911.5"/>
<text xml:space="preserve" text-anchor="start" x="85.12" y="-919.75" font-family="Linux libertine" font-size="10.00">input:</text>
<polygon fill="none" stroke="black" points="122,-911.5 122,-934.25 186,-934.25 186,-911.5 122,-911.5"/>
<text xml:space="preserve" text-anchor="start" x="127" y="-919.75" font-family="Linux libertine" font-size="10.00">(1, 161, 128) </text>
<polygon fill="none" stroke="black" points="75.25,-888.75 75.25,-911.5 122,-911.5 122,-888.75 75.25,-888.75"/>
<text xml:space="preserve" text-anchor="start" x="80.25" y="-897" font-family="Linux libertine" font-size="10.00">output: </text>
<polygon fill="none" stroke="black" points="122,-888.75 122,-911.5 186,-911.5 186,-888.75 122,-888.75"/>
<text xml:space="preserve" text-anchor="start" x="132.25" y="-897" font-family="Linux libertine" font-size="10.00">(1, 161, 1) </text>
</g>
<!-- 11&#45;&gt;12 -->
<g id="edge13" class="edge">
<title>11&#45;&gt;12</title>
<path fill="none" stroke="black" d="M108,-970.28C108,-962.65 108,-953.9 108,-945.56"/>
<polygon fill="black" stroke="black" points="111.5,-945.71 108,-935.71 104.5,-945.71 111.5,-945.71"/>
</g>
<!-- 13 -->
<g id="node14" class="node">
<title>13</title>
<polygon fill="aliceblue" stroke="none" points="181.5,-852.75 34.5,-852.75 34.5,-807.25 181.5,-807.25 181.5,-852.75"/>
<polygon fill="none" stroke="black" points="34.5,-807.25 34.5,-852.75 81.25,-852.75 81.25,-807.25 34.5,-807.25"/>
<text xml:space="preserve" text-anchor="start" x="39.5" y="-833.25" font-family="Linux libertine" font-size="10.00">squeeze</text>
<text xml:space="preserve" text-anchor="start" x="40.25" y="-820.5" font-family="Linux libertine" font-size="10.00">depth:1</text>
<polygon fill="none" stroke="black" points="81.25,-830 81.25,-852.75 128,-852.75 128,-830 81.25,-830"/>
<text xml:space="preserve" text-anchor="start" x="91.12" y="-838.25" font-family="Linux libertine" font-size="10.00">input:</text>
<polygon fill="none" stroke="black" points="128,-830 128,-852.75 181.5,-852.75 181.5,-830 128,-830"/>
<text xml:space="preserve" text-anchor="start" x="133" y="-838.25" font-family="Linux libertine" font-size="10.00">(1, 161, 1) </text>
<polygon fill="none" stroke="black" points="81.25,-807.25 81.25,-830 128,-830 128,-807.25 81.25,-807.25"/>
<text xml:space="preserve" text-anchor="start" x="86.25" y="-815.5" font-family="Linux libertine" font-size="10.00">output: </text>
<polygon fill="none" stroke="black" points="128,-807.25 128,-830 181.5,-830 181.5,-807.25 128,-807.25"/>
<text xml:space="preserve" text-anchor="start" x="137.88" y="-815.5" font-family="Linux libertine" font-size="10.00">(1, 161) </text>
</g>
<!-- 12&#45;&gt;13 -->
<g id="edge14" class="edge">
<title>12&#45;&gt;13</title>
<path fill="none" stroke="black" d="M108,-888.78C108,-881.15 108,-872.4 108,-864.06"/>
<polygon fill="black" stroke="black" points="111.5,-864.21 108,-854.21 104.5,-864.21 111.5,-864.21"/>
</g>
<!-- 14 -->
<g id="node15" class="node">
<title>14</title>
<polygon fill="aliceblue" stroke="none" points="176.62,-771.25 39.38,-771.25 39.38,-725.75 176.62,-725.75 176.62,-771.25"/>
<polygon fill="none" stroke="black" points="39.38,-725.75 39.38,-771.25 86.12,-771.25 86.12,-725.75 39.38,-725.75"/>
<text xml:space="preserve" text-anchor="start" x="44.38" y="-751.75" font-family="Linux libertine" font-size="10.00">softmax</text>
<text xml:space="preserve" text-anchor="start" x="45.12" y="-739" font-family="Linux libertine" font-size="10.00">depth:1</text>
<polygon fill="none" stroke="black" points="86.12,-748.5 86.12,-771.25 132.88,-771.25 132.88,-748.5 86.12,-748.5"/>
<text xml:space="preserve" text-anchor="start" x="96" y="-756.75" font-family="Linux libertine" font-size="10.00">input:</text>
<polygon fill="none" stroke="black" points="132.88,-748.5 132.88,-771.25 176.62,-771.25 176.62,-748.5 132.88,-748.5"/>
<text xml:space="preserve" text-anchor="start" x="137.88" y="-756.75" font-family="Linux libertine" font-size="10.00">(1, 161) </text>
<polygon fill="none" stroke="black" points="86.12,-725.75 86.12,-748.5 132.88,-748.5 132.88,-725.75 86.12,-725.75"/>
<text xml:space="preserve" text-anchor="start" x="91.12" y="-734" font-family="Linux libertine" font-size="10.00">output: </text>
<polygon fill="none" stroke="black" points="132.88,-725.75 132.88,-748.5 176.62,-748.5 176.62,-725.75 132.88,-725.75"/>
<text xml:space="preserve" text-anchor="start" x="137.88" y="-734" font-family="Linux libertine" font-size="10.00">(1, 161) </text>
</g>
<!-- 13&#45;&gt;14 -->
<g id="edge15" class="edge">
<title>13&#45;&gt;14</title>
<path fill="none" stroke="black" d="M108,-807.28C108,-799.65 108,-790.9 108,-782.56"/>
<polygon fill="black" stroke="black" points="111.5,-782.71 108,-772.71 104.5,-782.71 111.5,-782.71"/>
</g>
<!-- 15 -->
<g id="node16" class="node">
<title>15</title>
<polygon fill="aliceblue" stroke="none" points="186.5,-689.75 27.5,-689.75 27.5,-644.25 186.5,-644.25 186.5,-689.75"/>
<polygon fill="none" stroke="black" points="27.5,-644.25 27.5,-689.75 86.25,-689.75 86.25,-644.25 27.5,-644.25"/>
<text xml:space="preserve" text-anchor="start" x="32.5" y="-670.25" font-family="Linux libertine" font-size="10.00">unsqueeze</text>
<text xml:space="preserve" text-anchor="start" x="39.25" y="-657.5" font-family="Linux libertine" font-size="10.00">depth:1</text>
<polygon fill="none" stroke="black" points="86.25,-667 86.25,-689.75 133,-689.75 133,-667 86.25,-667"/>
<text xml:space="preserve" text-anchor="start" x="96.12" y="-675.25" font-family="Linux libertine" font-size="10.00">input:</text>
<polygon fill="none" stroke="black" points="133,-667 133,-689.75 186.5,-689.75 186.5,-667 133,-667"/>
<text xml:space="preserve" text-anchor="start" x="142.88" y="-675.25" font-family="Linux libertine" font-size="10.00">(1, 161) </text>
<polygon fill="none" stroke="black" points="86.25,-644.25 86.25,-667 133,-667 133,-644.25 86.25,-644.25"/>
<text xml:space="preserve" text-anchor="start" x="91.25" y="-652.5" font-family="Linux libertine" font-size="10.00">output: </text>
<polygon fill="none" stroke="black" points="133,-644.25 133,-667 186.5,-667 186.5,-644.25 133,-644.25"/>
<text xml:space="preserve" text-anchor="start" x="138" y="-652.5" font-family="Linux libertine" font-size="10.00">(1, 161, 1) </text>
</g>
<!-- 14&#45;&gt;15 -->
<g id="edge16" class="edge">
<title>14&#45;&gt;15</title>
<path fill="none" stroke="black" d="M107.73,-725.78C107.63,-718.15 107.52,-709.4 107.42,-701.06"/>
<polygon fill="black" stroke="black" points="110.92,-701.17 107.29,-691.21 103.92,-701.25 110.92,-701.17"/>
</g>
<!-- 15&#45;&gt;16 -->
<g id="edge17" class="edge">
<title>15&#45;&gt;16</title>
<path fill="none" stroke="black" d="M112.19,-644.28C114.03,-636.56 116.15,-627.7 118.17,-619.27"/>
<polygon fill="black" stroke="black" points="121.54,-620.21 120.46,-609.67 114.73,-618.58 121.54,-620.21"/>
</g>
<!-- 17 -->
<g id="node18" class="node">
<title>17</title>
<polygon fill="aliceblue" stroke="none" points="204,-526.75 48,-526.75 48,-481.25 204,-481.25 204,-526.75"/>
<polygon fill="none" stroke="black" points="48,-481.25 48,-526.75 93.25,-526.75 93.25,-481.25 48,-481.25"/>
<text xml:space="preserve" text-anchor="start" x="60.88" y="-507.25" font-family="Linux libertine" font-size="10.00">sum</text>
<text xml:space="preserve" text-anchor="start" x="53" y="-494.5" font-family="Linux libertine" font-size="10.00">depth:1</text>
<polygon fill="none" stroke="black" points="93.25,-504 93.25,-526.75 140,-526.75 140,-504 93.25,-504"/>
<text xml:space="preserve" text-anchor="start" x="103.12" y="-512.25" font-family="Linux libertine" font-size="10.00">input:</text>
<polygon fill="none" stroke="black" points="140,-504 140,-526.75 204,-526.75 204,-504 140,-504"/>
<text xml:space="preserve" text-anchor="start" x="145" y="-512.25" font-family="Linux libertine" font-size="10.00">(1, 161, 128) </text>
<polygon fill="none" stroke="black" points="93.25,-481.25 93.25,-504 140,-504 140,-481.25 93.25,-481.25"/>
<text xml:space="preserve" text-anchor="start" x="98.25" y="-489.5" font-family="Linux libertine" font-size="10.00">output: </text>
<polygon fill="none" stroke="black" points="140,-481.25 140,-504 204,-504 204,-481.25 140,-481.25"/>
<text xml:space="preserve" text-anchor="start" x="155.12" y="-489.5" font-family="Linux libertine" font-size="10.00">(1, 128) </text>
</g>
<!-- 16&#45;&gt;17 -->
<g id="edge18" class="edge">
<title>16&#45;&gt;17</title>
<path fill="none" stroke="black" d="M126,-562.78C126,-555.15 126,-546.4 126,-538.06"/>
<polygon fill="black" stroke="black" points="129.5,-538.21 126,-528.21 122.5,-538.21 129.5,-538.21"/>
</g>
<!-- 18 -->
<g id="node19" class="node">
<title>18</title>
<polygon fill="#c1ffc1" stroke="none" points="193.88,-443 58.12,-443 58.12,-397.5 193.88,-397.5 193.88,-443"/>
<polygon fill="none" stroke="black" points="58.12,-397.5 58.12,-443 103.38,-443 103.38,-397.5 58.12,-397.5"/>
<text xml:space="preserve" text-anchor="start" x="66.88" y="-423.5" font-family="Linux libertine" font-size="10.00">Linear</text>
<text xml:space="preserve" text-anchor="start" x="63.12" y="-410.75" font-family="Linux libertine" font-size="10.00">depth:2</text>
<polygon fill="none" stroke="black" points="103.38,-420.25 103.38,-443 150.12,-443 150.12,-420.25 103.38,-420.25"/>
<text xml:space="preserve" text-anchor="start" x="113.25" y="-428.5" font-family="Linux libertine" font-size="10.00">input:</text>
<polygon fill="none" stroke="black" points="150.12,-420.25 150.12,-443 193.88,-443 193.88,-420.25 150.12,-420.25"/>
<text xml:space="preserve" text-anchor="start" x="155.12" y="-428.5" font-family="Linux libertine" font-size="10.00">(1, 128) </text>
<polygon fill="none" stroke="black" points="103.38,-397.5 103.38,-420.25 150.12,-420.25 150.12,-397.5 103.38,-397.5"/>
<text xml:space="preserve" text-anchor="start" x="108.38" y="-405.75" font-family="Linux libertine" font-size="10.00">output: </text>
<polygon fill="none" stroke="black" points="150.12,-397.5 150.12,-420.25 193.88,-420.25 193.88,-397.5 150.12,-397.5"/>
<text xml:space="preserve" text-anchor="start" x="155.12" y="-405.75" font-family="Linux libertine" font-size="10.00">(1, 128) </text>
</g>
<!-- 17&#45;&gt;18 -->
<g id="edge19" class="edge">
<title>17&#45;&gt;18</title>
<path fill="none" stroke="black" d="M126,-481.52C126,-473.14 126,-463.34 126,-454.11"/>
<polygon fill="black" stroke="black" points="129.5,-454.38 126,-444.38 122.5,-454.38 129.5,-454.38"/>
</g>
<!-- 19 -->
<g id="node20" class="node">
<title>19</title>
<polygon fill="#c1ffc1" stroke="none" points="193.88,-361.5 58.12,-361.5 58.12,-316 193.88,-316 193.88,-361.5"/>
<polygon fill="none" stroke="black" points="58.12,-316 58.12,-361.5 103.38,-361.5 103.38,-316 58.12,-316"/>
<text xml:space="preserve" text-anchor="start" x="69.12" y="-342" font-family="Linux libertine" font-size="10.00">GELU</text>
<text xml:space="preserve" text-anchor="start" x="63.12" y="-329.25" font-family="Linux libertine" font-size="10.00">depth:2</text>
<polygon fill="none" stroke="black" points="103.38,-338.75 103.38,-361.5 150.12,-361.5 150.12,-338.75 103.38,-338.75"/>
<text xml:space="preserve" text-anchor="start" x="113.25" y="-347" font-family="Linux libertine" font-size="10.00">input:</text>
<polygon fill="none" stroke="black" points="150.12,-338.75 150.12,-361.5 193.88,-361.5 193.88,-338.75 150.12,-338.75"/>
<text xml:space="preserve" text-anchor="start" x="155.12" y="-347" font-family="Linux libertine" font-size="10.00">(1, 128) </text>
<polygon fill="none" stroke="black" points="103.38,-316 103.38,-338.75 150.12,-338.75 150.12,-316 103.38,-316"/>
<text xml:space="preserve" text-anchor="start" x="108.38" y="-324.25" font-family="Linux libertine" font-size="10.00">output: </text>
<polygon fill="none" stroke="black" points="150.12,-316 150.12,-338.75 193.88,-338.75 193.88,-316 150.12,-316"/>
<text xml:space="preserve" text-anchor="start" x="155.12" y="-324.25" font-family="Linux libertine" font-size="10.00">(1, 128) </text>
</g>
<!-- 18&#45;&gt;19 -->
<g id="edge20" class="edge">
<title>18&#45;&gt;19</title>
<path fill="none" stroke="black" d="M126,-397.53C126,-389.9 126,-381.15 126,-372.81"/>
<polygon fill="black" stroke="black" points="129.5,-372.96 126,-362.96 122.5,-372.96 129.5,-372.96"/>
</g>
<!-- 20 -->
<g id="node21" class="node">
<title>20</title>
<polygon fill="#c1ffc1" stroke="none" points="195.38,-280 56.62,-280 56.62,-234.5 195.38,-234.5 195.38,-280"/>
<polygon fill="none" stroke="black" points="56.62,-234.5 56.62,-280 104.88,-280 104.88,-234.5 56.62,-234.5"/>
<text xml:space="preserve" text-anchor="start" x="61.62" y="-260.5" font-family="Linux libertine" font-size="10.00">Dropout</text>
<text xml:space="preserve" text-anchor="start" x="63.12" y="-247.75" font-family="Linux libertine" font-size="10.00">depth:2</text>
<polygon fill="none" stroke="black" points="104.88,-257.25 104.88,-280 151.62,-280 151.62,-257.25 104.88,-257.25"/>
<text xml:space="preserve" text-anchor="start" x="114.75" y="-265.5" font-family="Linux libertine" font-size="10.00">input:</text>
<polygon fill="none" stroke="black" points="151.62,-257.25 151.62,-280 195.38,-280 195.38,-257.25 151.62,-257.25"/>
<text xml:space="preserve" text-anchor="start" x="156.62" y="-265.5" font-family="Linux libertine" font-size="10.00">(1, 128) </text>
<polygon fill="none" stroke="black" points="104.88,-234.5 104.88,-257.25 151.62,-257.25 151.62,-234.5 104.88,-234.5"/>
<text xml:space="preserve" text-anchor="start" x="109.88" y="-242.75" font-family="Linux libertine" font-size="10.00">output: </text>
<polygon fill="none" stroke="black" points="151.62,-234.5 151.62,-257.25 195.38,-257.25 195.38,-234.5 151.62,-234.5"/>
<text xml:space="preserve" text-anchor="start" x="156.62" y="-242.75" font-family="Linux libertine" font-size="10.00">(1, 128) </text>
</g>
<!-- 19&#45;&gt;20 -->
<g id="edge21" class="edge">
<title>19&#45;&gt;20</title>
<path fill="none" stroke="black" d="M126,-316.03C126,-308.4 126,-299.65 126,-291.31"/>
<polygon fill="black" stroke="black" points="129.5,-291.46 126,-281.46 122.5,-291.46 129.5,-291.46"/>
</g>
<!-- 21 -->
<g id="node22" class="node">
<title>21</title>
<polygon fill="#c1ffc1" stroke="none" points="193.88,-198.5 58.12,-198.5 58.12,-153 193.88,-153 193.88,-198.5"/>
<polygon fill="none" stroke="black" points="58.12,-153 58.12,-198.5 103.38,-198.5 103.38,-153 58.12,-153"/>
<text xml:space="preserve" text-anchor="start" x="66.88" y="-179" font-family="Linux libertine" font-size="10.00">Linear</text>
<text xml:space="preserve" text-anchor="start" x="63.12" y="-166.25" font-family="Linux libertine" font-size="10.00">depth:2</text>
<polygon fill="none" stroke="black" points="103.38,-175.75 103.38,-198.5 150.12,-198.5 150.12,-175.75 103.38,-175.75"/>
<text xml:space="preserve" text-anchor="start" x="113.25" y="-184" font-family="Linux libertine" font-size="10.00">input:</text>
<polygon fill="none" stroke="black" points="150.12,-175.75 150.12,-198.5 193.88,-198.5 193.88,-175.75 150.12,-175.75"/>
<text xml:space="preserve" text-anchor="start" x="155.12" y="-184" font-family="Linux libertine" font-size="10.00">(1, 128) </text>
<polygon fill="none" stroke="black" points="103.38,-153 103.38,-175.75 150.12,-175.75 150.12,-153 103.38,-153"/>
<text xml:space="preserve" text-anchor="start" x="108.38" y="-161.25" font-family="Linux libertine" font-size="10.00">output: </text>
<polygon fill="none" stroke="black" points="150.12,-153 150.12,-175.75 193.88,-175.75 193.88,-153 150.12,-153"/>
<text xml:space="preserve" text-anchor="start" x="157.75" y="-161.25" font-family="Linux libertine" font-size="10.00">(1, 32) </text>
</g>
<!-- 20&#45;&gt;21 -->
<g id="edge22" class="edge">
<title>20&#45;&gt;21</title>
<path fill="none" stroke="black" d="M126,-234.53C126,-226.9 126,-218.15 126,-209.81"/>
<polygon fill="black" stroke="black" points="129.5,-209.96 126,-199.96 122.5,-209.96 129.5,-209.96"/>
</g>
<!-- 22 -->
<g id="node23" class="node">
<title>22</title>
<polygon fill="aliceblue" stroke="none" points="195.75,-117 56.25,-117 56.25,-71.5 195.75,-71.5 195.75,-117"/>
<polygon fill="none" stroke="black" points="56.25,-71.5 56.25,-117 110.5,-117 110.5,-71.5 56.25,-71.5"/>
<text xml:space="preserve" text-anchor="start" x="61.25" y="-97.5" font-family="Linux libertine" font-size="10.00">normalize</text>
<text xml:space="preserve" text-anchor="start" x="65.75" y="-84.75" font-family="Linux libertine" font-size="10.00">depth:1</text>
<polygon fill="none" stroke="black" points="110.5,-94.25 110.5,-117 157.25,-117 157.25,-94.25 110.5,-94.25"/>
<text xml:space="preserve" text-anchor="start" x="120.38" y="-102.5" font-family="Linux libertine" font-size="10.00">input:</text>
<polygon fill="none" stroke="black" points="157.25,-94.25 157.25,-117 195.75,-117 195.75,-94.25 157.25,-94.25"/>
<text xml:space="preserve" text-anchor="start" x="162.25" y="-102.5" font-family="Linux libertine" font-size="10.00">(1, 32) </text>
<polygon fill="none" stroke="black" points="110.5,-71.5 110.5,-94.25 157.25,-94.25 157.25,-71.5 110.5,-71.5"/>
<text xml:space="preserve" text-anchor="start" x="115.5" y="-79.75" font-family="Linux libertine" font-size="10.00">output: </text>
<polygon fill="none" stroke="black" points="157.25,-71.5 157.25,-94.25 195.75,-94.25 195.75,-71.5 157.25,-71.5"/>
<text xml:space="preserve" text-anchor="start" x="162.25" y="-79.75" font-family="Linux libertine" font-size="10.00">(1, 32) </text>
</g>
<!-- 21&#45;&gt;22 -->
<g id="edge23" class="edge">
<title>21&#45;&gt;22</title>
<path fill="none" stroke="black" d="M126,-153.03C126,-145.4 126,-136.65 126,-128.31"/>
<polygon fill="black" stroke="black" points="129.5,-128.46 126,-118.46 122.5,-128.46 129.5,-128.46"/>
</g>
<!-- 23 -->
<g id="node24" class="node">
<title>23</title>
<polygon fill="lightyellow" stroke="none" points="181,-35.5 71,-35.5 71,0 181,0 181,-35.5"/>
<polygon fill="none" stroke="black" points="71,0 71,-35.5 144.75,-35.5 144.75,0 71,0"/>
<text xml:space="preserve" text-anchor="start" x="76" y="-21" font-family="Linux libertine" font-size="10.00">output&#45;tensor</text>
<text xml:space="preserve" text-anchor="start" x="90.25" y="-8.25" font-family="Linux libertine" font-size="10.00">depth:0</text>
<polygon fill="none" stroke="black" points="144.75,0 144.75,-35.5 181,-35.5 181,0 144.75,0"/>
<text xml:space="preserve" text-anchor="start" x="149.75" y="-14.62" font-family="Linux libertine" font-size="10.00">(1, 32)</text>
</g>
<!-- 22&#45;&gt;23 -->
<g id="edge24" class="edge">
<title>22&#45;&gt;23</title>
<path fill="none" stroke="black" d="M126,-71.7C126,-63.85 126,-54.85 126,-46.54"/>
<polygon fill="black" stroke="black" points="129.5,-46.56 126,-36.56 122.5,-46.56 129.5,-46.56"/>
</g>
</g>
</svg>
